<svg width="11" height="11" viewBox="0 0 11 11" fill="none" xmlns="http://www.w3.org/2000/svg">
<circle cx="5.5" cy="5.5" r="5.075" fill="white" stroke="#4D4D4D" stroke-width="0.85"/>
<path d="M4 2.65058C4.0968 2.56084 4.2024 2.47709 4.3168 2.39932C4.4312 2.32155 4.5544 2.25275 4.6864 2.19293C4.82133 2.13311 4.96653 2.08674 5.122 2.05384C5.2804 2.01795 5.45053 2 5.6324 2C5.87587 2 6.0988 2.03589 6.3012 2.10768C6.50653 2.17648 6.68253 2.27668 6.8292 2.40829C6.9788 2.53691 7.09467 2.69395 7.1768 2.8794C7.25893 3.06186 7.3 3.26676 7.3 3.49409C7.3 3.72141 7.26773 3.91883 7.2032 4.08634C7.13867 4.25085 7.05653 4.39443 6.9568 4.51706C6.85707 4.6397 6.74853 4.74738 6.6312 4.84011C6.51387 4.92984 6.4024 5.01509 6.2968 5.09585C6.19413 5.17362 6.10467 5.25289 6.0284 5.33365C5.95507 5.41142 5.91107 5.49816 5.8964 5.59388L5.804 6.26689H5.1616L5.0956 5.52658C5.08093 5.386 5.10293 5.26485 5.1616 5.16315C5.22027 5.06145 5.298 4.96574 5.3948 4.876C5.49453 4.78627 5.60307 4.70102 5.7204 4.62026C5.84067 4.53651 5.95213 4.44378 6.0548 4.34208C6.15747 4.24038 6.244 4.12672 6.3144 4.00109C6.3848 3.87546 6.42 3.7244 6.42 3.54793C6.42 3.43127 6.398 3.32658 6.354 3.23385C6.31 3.13814 6.2484 3.05738 6.1692 2.99157C6.09 2.92576 5.9976 2.87491 5.892 2.83902C5.7864 2.80313 5.672 2.78518 5.5488 2.78518C5.37573 2.78518 5.22907 2.80612 5.1088 2.84799C4.98853 2.88987 4.88587 2.93623 4.8008 2.98708C4.71573 3.03494 4.64533 3.07981 4.5896 3.12169C4.53387 3.16057 4.48693 3.18001 4.4488 3.18001C4.35787 3.18001 4.2904 3.13963 4.2464 3.05887L4 2.65058ZM4.8448 7.97634C4.8448 7.8896 4.85947 7.80884 4.8888 7.73406C4.92107 7.65629 4.9636 7.58899 5.0164 7.53216C5.07213 7.47532 5.13667 7.43045 5.21 7.39755C5.28627 7.36465 5.36693 7.3482 5.452 7.3482C5.53707 7.3482 5.61627 7.36465 5.6896 7.39755C5.76587 7.43045 5.83187 7.47532 5.8876 7.53216C5.94333 7.58899 5.98733 7.65629 6.0196 7.73406C6.05187 7.80884 6.068 7.8896 6.068 7.97634C6.068 8.06608 6.05187 8.14833 6.0196 8.22311C5.98733 8.29789 5.94333 8.3637 5.8876 8.42053C5.83187 8.47736 5.76587 8.52073 5.6896 8.55065C5.61627 8.58355 5.53707 8.6 5.452 8.6C5.36693 8.6 5.28627 8.58355 5.21 8.55065C5.13667 8.52073 5.07213 8.47736 5.0164 8.42053C4.9636 8.3637 4.92107 8.29789 4.8888 8.22311C4.85947 8.14833 4.8448 8.06608 4.8448 7.97634Z" fill="#4D4D4D"/>
</svg>
