<svg width="31" height="36" viewBox="0 0 31 36" fill="none" xmlns="http://www.w3.org/2000/svg">
<path d="M15.757 35.3472C22.9143 35.3472 30.5286 33.8188 30.5286 31.2205V22.203C30.0717 19.6048 22.7621 18.2292 15.757 18.2292C8.75191 18.2292 1.44227 19.6048 0.985413 22.203V31.0677C0.985413 33.8188 8.59963 35.3472 15.757 35.3472ZM15.757 19.1463C23.8281 19.1463 29.4626 20.8275 29.4626 22.3559C29.4626 23.8843 23.8281 25.5655 15.757 25.5655C7.68592 25.5655 2.0514 23.8843 2.0514 22.3559C2.0514 20.8275 7.68592 19.1463 15.757 19.1463ZM2.0514 24.0371C4.33567 25.7183 10.2748 26.6354 15.757 26.6354C21.2392 26.6354 27.1783 25.7183 29.4626 24.0371V31.0677C29.4626 32.5961 23.8281 34.2773 15.757 34.2773C7.68592 34.2773 2.0514 32.5961 2.0514 31.0677V24.0371ZM2.0514 32.7489C4.33567 34.4301 10.2748 35.3472 15.757 35.3472C21.2392 35.3472 27.1783 34.4301 29.4626 32.7489V31.2205C29.4626 32.7489 23.8281 34.4301 15.757 34.4301C7.68592 34.4301 2.0514 32.7489 2.0514 31.2205V32.7489Z" fill="#172851"/>
<path d="M15.757 35.3472C22.9143 35.3472 30.5286 33.8188 30.5286 31.2205V22.203C30.0717 19.6048 22.7621 18.2292 15.757 18.2292C8.75191 18.2292 1.44227 19.6048 0.985413 22.203V31.0677C0.985413 33.8188 8.59963 35.3472 15.757 35.3472ZM15.757 35.3472C10.2748 35.3472 4.33567 34.4301 2.0514 32.7489V31.2205C2.0514 32.7489 7.68592 34.4301 15.757 34.4301C23.8281 34.4301 29.4626 32.7489 29.4626 31.2205V32.7489C27.1783 34.4301 21.2392 35.3472 15.757 35.3472ZM15.757 19.1463C23.8281 19.1463 29.4626 20.8275 29.4626 22.3559C29.4626 23.8843 23.8281 25.5655 15.757 25.5655C7.68592 25.5655 2.0514 23.8843 2.0514 22.3559C2.0514 20.8275 7.68592 19.1463 15.757 19.1463ZM2.0514 24.0371C4.33567 25.7183 10.2748 26.6354 15.757 26.6354C21.2392 26.6354 27.1783 25.7183 29.4626 24.0371V31.0677C29.4626 32.5961 23.8281 34.2773 15.757 34.2773C7.68592 34.2773 2.0514 32.5961 2.0514 31.0677V24.0371Z" stroke="#172851" stroke-width="0.25" stroke-miterlimit="10"/>
<path d="M28.092 15.631L23.9803 16.7009L18.4981 17.1594H11.7976L4.64023 16.0895L1.59454 14.5611L1.44226 22.9672L2.20368 23.5786L5.24937 24.8013L9.36104 25.7183L14.3864 26.024L19.7164 25.8712L24.894 25.107L28.092 24.19L29.9194 22.9672V14.1026L28.092 15.631ZM12.4067 22.8144C11.7976 22.8144 11.1885 22.3559 11.1885 21.5917C11.1885 20.9803 11.6453 20.369 12.4067 20.369C13.0159 20.369 13.625 20.8275 13.625 21.5917C13.4727 22.2031 13.0159 22.8144 12.4067 22.8144ZM16.2138 23.2729C15.6047 23.2729 14.9956 22.8144 14.9956 22.0502C14.9956 21.4389 15.4524 20.8275 16.2138 20.8275C16.823 20.8275 17.4321 21.286 17.4321 22.0502C17.2798 22.6616 16.823 23.2729 16.2138 23.2729Z" fill="white"/>
<path d="M12.2544 14.1026C12.9273 14.1026 13.4727 13.5552 13.4727 12.8799C13.4727 12.2046 12.9273 11.6572 12.2544 11.6572C11.5816 11.6572 11.0362 12.2046 11.0362 12.8799C11.0362 13.5552 11.5816 14.1026 12.2544 14.1026Z" fill="#172851"/>
<path d="M20.1732 14.1026C20.8461 14.1026 21.3915 13.5552 21.3915 12.8799C21.3915 12.2046 20.8461 11.6572 20.1732 11.6572C19.5004 11.6572 18.955 12.2046 18.955 12.8799C18.955 13.5552 19.5004 14.1026 20.1732 14.1026Z" fill="#172851"/>
<path d="M12.4067 31.3734C13.0796 31.3734 13.625 30.8259 13.625 30.1507C13.625 29.4754 13.0796 28.9279 12.4067 28.9279C11.7339 28.9279 11.1884 29.4754 11.1884 30.1507C11.1884 30.8259 11.7339 31.3734 12.4067 31.3734Z" fill="#172851"/>
<path d="M16.2138 31.8319C16.8867 31.8319 17.4321 31.2845 17.4321 30.6092C17.4321 29.9339 16.8867 29.3865 16.2138 29.3865C15.541 29.3865 14.9956 29.9339 14.9956 30.6092C14.9956 31.2845 15.541 31.8319 16.2138 31.8319Z" fill="#172851"/>
<path d="M16.0615 9.05894C23.8832 9.05894 30.224 7.34824 30.224 5.23798C30.224 3.12773 23.8832 1.41702 16.0615 1.41702C8.23985 1.41702 1.89911 3.12773 1.89911 5.23798C1.89911 7.34824 8.23985 9.05894 16.0615 9.05894Z" fill="#509BCB"/>
<path d="M16.2138 14.5611C16.8867 14.5611 17.4321 14.0137 17.4321 13.3384C17.4321 12.6631 16.8867 12.1157 16.2138 12.1157C15.541 12.1157 14.9955 12.6631 14.9955 13.3384C14.9955 14.0137 15.541 14.5611 16.2138 14.5611Z" fill="#509BCB"/>
<path d="M20.1732 22.8144C20.8461 22.8144 21.3915 22.267 21.3915 21.5917C21.3915 20.9164 20.8461 20.369 20.1732 20.369C19.5004 20.369 18.955 20.9164 18.955 21.5917C18.955 22.267 19.5004 22.8144 20.1732 22.8144Z" fill="#509BCB"/>
<path d="M20.1732 31.3734C20.8461 31.3734 21.3915 30.8259 21.3915 30.1507C21.3915 29.4754 20.8461 28.9279 20.1732 28.9279C19.5004 28.9279 18.955 29.4754 18.955 30.1507C18.955 30.8259 19.5004 31.3734 20.1732 31.3734Z" fill="#509BCB"/>
<path d="M15.757 26.4825C22.9143 26.4825 30.5286 24.9541 30.5286 22.3559V4.62663C30.0717 2.02838 22.7621 0.652832 15.757 0.652832C8.75191 0.652832 1.44227 2.18122 0.985413 4.62663V22.3559C0.985413 25.107 8.59963 26.4825 15.757 26.4825ZM15.757 1.56986C23.8281 1.56986 29.4626 3.25109 29.4626 4.77947C29.4626 6.30785 23.9803 8.14192 15.757 8.14192C7.53364 8.14192 2.0514 6.46069 2.0514 4.93231C2.0514 3.40392 7.68592 1.56986 15.757 1.56986ZM2.0514 6.46069C4.33567 8.14192 10.2748 9.05895 15.757 9.05895C21.2392 9.05895 27.1783 8.14192 29.4626 6.46069V13.6441C29.4626 15.1725 23.8281 16.8537 15.757 16.8537C7.68592 16.8537 2.0514 15.1725 2.0514 13.6441V6.46069ZM2.0514 15.3253C4.33567 17.0065 10.2748 17.9236 15.757 17.9236C21.2392 17.9236 27.1783 17.0065 29.4626 15.3253V22.5087C29.4626 24.0371 23.8281 25.7183 15.757 25.7183C7.68592 25.7183 2.0514 24.0371 2.0514 22.5087V15.3253Z" fill="#172851" stroke="#172851" stroke-width="0.25" stroke-miterlimit="10"/>
<path d="M12.2544 22.8144C12.9273 22.8144 13.4727 22.267 13.4727 21.5917C13.4727 20.9164 12.9273 20.369 12.2544 20.369C11.5816 20.369 11.0362 20.9164 11.0362 21.5917C11.0362 22.267 11.5816 22.8144 12.2544 22.8144Z" fill="#172851"/>
<path d="M16.0616 23.2729C16.7344 23.2729 17.2798 22.7255 17.2798 22.0502C17.2798 21.3749 16.7344 20.8275 16.0616 20.8275C15.3887 20.8275 14.8433 21.3749 14.8433 22.0502C14.8433 22.7255 15.3887 23.2729 16.0616 23.2729Z" fill="#172851"/>
</svg>
