<svg width="38" height="37" viewBox="0 0 38 37" fill="none" xmlns="http://www.w3.org/2000/svg">
<g clip-path="url(#clip0_2656_14341)">
<path d="M29.8452 8.25129H36.1613C36.7112 8.25129 37.1631 7.80658 37.1631 7.25725V0.994041C37.1631 0.444703 36.7149 0 36.1613 0H29.8452C29.2953 0 28.8434 0.444703 28.8434 0.994041V3.54641H21.7213C21.3974 3.54641 21.1376 3.80426 21.1376 4.12564V17.9189H15.2697V13.6475C15.2697 12.5339 14.426 11.5174 12.8932 10.7924C11.4959 10.131 9.65791 9.76477 7.71827 9.76477C5.77864 9.76477 3.94069 10.131 2.5434 10.7924C1.01052 11.5174 0.16687 12.5339 0.16687 13.6475V23.3488C0.16687 24.4661 1.01052 25.4788 2.53963 26.2038C3.93316 26.8653 5.7711 27.2278 7.71827 27.2278C9.66544 27.2278 11.5034 26.8653 12.8969 26.2038C14.426 25.4788 15.2697 24.4661 15.2697 23.3488V19.0774H21.1376V32.8706C21.1376 33.192 21.3974 33.4499 21.7213 33.4499H28.8471V36.006C28.8471 36.5516 29.2953 37 29.849 37H36.165C36.7149 37 37.1669 36.5553 37.1669 36.006V29.739C37.1669 29.1934 36.7187 28.745 36.165 28.745H29.8452C29.2953 28.745 28.8434 29.1897 28.8434 29.739V32.2914H22.3051V19.0774H28.8471V21.6335C28.8471 22.1791 29.2953 22.6275 29.849 22.6275H36.165C36.7149 22.6275 37.1669 22.1828 37.1669 21.6335V15.3665C37.1669 14.8209 36.7187 14.3725 36.165 14.3725H29.8452C29.2953 14.3725 28.8434 14.8172 28.8434 15.3665V17.9189H22.3051V4.70488H28.8471V7.26098C28.8434 7.80658 29.2953 8.25129 29.8452 8.25129ZM1.33442 15.7589C1.66962 16.0317 2.07638 16.2784 2.54716 16.5026C3.94446 17.164 5.7824 17.5265 7.72204 17.5265C9.66168 17.5265 11.5034 17.164 12.8969 16.5026C13.3677 16.2784 13.7707 16.0317 14.1059 15.7589V18.5206C14.1059 19.8098 11.4846 21.2448 7.72204 21.2448C3.95952 21.2448 1.33442 19.8098 1.33442 18.5206V15.7589ZM7.71827 10.9232C11.4808 10.9232 14.1021 12.3582 14.1021 13.6475C14.1021 14.9368 11.4808 16.3718 7.71827 16.3718C3.95575 16.3718 1.33442 14.9368 1.33442 13.6475C1.33442 12.3582 3.95575 10.9232 7.71827 10.9232ZM7.71827 26.073C3.95575 26.073 1.33442 24.638 1.33442 23.3488V20.6357C1.66962 20.9048 2.07261 21.1551 2.5434 21.3756C3.93692 22.0371 5.77487 22.3996 7.72204 22.3996C9.66921 22.3996 11.5072 22.0371 12.9007 21.3756C13.3677 21.1551 13.7707 20.9048 14.1059 20.6357V23.3488C14.1059 24.638 11.4808 26.073 7.71827 26.073ZM30.0109 29.9034H35.9918V35.8378H30.0109V29.9034ZM30.0109 15.531H35.9918V21.4653H30.0109V15.531ZM30.0109 1.15847H35.9918V7.09656H30.0109V1.15847Z" fill="#172851"/>
<path d="M1.28922 15.5945C1.62441 15.8673 2.03117 16.1139 2.50196 16.3381C3.89925 16.9996 5.7372 17.3621 7.67684 17.3621C9.61648 17.3621 11.4582 16.9996 12.8517 16.3381C13.3225 16.1139 13.7255 15.8673 14.0607 15.5945V18.3561C14.0607 19.6454 11.4394 21.0804 7.67684 21.0804C3.91432 21.0804 1.28922 19.6454 1.28922 18.3561V15.5945Z" fill="white"/>
<path d="M35.9805 15.4674H29.9996V21.4018H35.9805V15.4674Z" fill="white"/>
</g>
<defs>
<clipPath id="clip0_2656_14341">
<rect width="37" height="37" fill="white" transform="translate(0.16687)"/>
</clipPath>
</defs>
</svg>
