<svg width="31" height="30" viewBox="0 0 31 30" fill="none" xmlns="http://www.w3.org/2000/svg">
<circle cx="13.8531" cy="13" r="12" stroke="#172851" stroke-width="2"/>
<path d="M20.8531 22.8284L25.9242 27.8994C26.7053 28.6805 27.9716 28.6805 28.7526 27.8994V27.8994C29.5337 27.1184 29.5337 25.8521 28.7526 25.071L23.6816 19.9999" stroke="#172851" stroke-width="2"/>
<mask id="path-3-inside-1_2656_14331" fill="white">
<path fill-rule="evenodd" clip-rule="evenodd" d="M11.5198 15.3333V20H16.1865V15.3333H20.8531V10.6667H16.1865V6H11.5198V10.6667H6.85315V15.3333H11.5198Z"/>
</mask>
<path fill-rule="evenodd" clip-rule="evenodd" d="M11.5198 15.3333V20H16.1865V15.3333H20.8531V10.6667H16.1865V6H11.5198V10.6667H6.85315V15.3333H11.5198Z" fill="white"/>
<path d="M11.5198 20H10.5198V21H11.5198V20ZM11.5198 15.3333H12.5198V14.3333H11.5198V15.3333ZM16.1865 20V21H17.1865V20H16.1865ZM16.1865 15.3333V14.3333H15.1865V15.3333H16.1865ZM20.8531 15.3333V16.3333H21.8531V15.3333H20.8531ZM20.8531 10.6667H21.8531V9.66667H20.8531V10.6667ZM16.1865 10.6667H15.1865V11.6667H16.1865V10.6667ZM16.1865 6H17.1865V5H16.1865V6ZM11.5198 6V5H10.5198V6H11.5198ZM11.5198 10.6667V11.6667H12.5198V10.6667H11.5198ZM6.85315 10.6667V9.66667H5.85315V10.6667H6.85315ZM6.85315 15.3333H5.85315V16.3333H6.85315V15.3333ZM12.5198 20V15.3333H10.5198V20H12.5198ZM16.1865 19H11.5198V21H16.1865V19ZM15.1865 15.3333V20H17.1865V15.3333H15.1865ZM20.8531 14.3333H16.1865V16.3333H20.8531V14.3333ZM19.8531 10.6667V15.3333H21.8531V10.6667H19.8531ZM16.1865 11.6667H20.8531V9.66667H16.1865V11.6667ZM15.1865 6V10.6667H17.1865V6H15.1865ZM11.5198 7H16.1865V5H11.5198V7ZM12.5198 10.6667V6H10.5198V10.6667H12.5198ZM6.85315 11.6667H11.5198V9.66667H6.85315V11.6667ZM7.85315 15.3333V10.6667H5.85315V15.3333H7.85315ZM11.5198 14.3333H6.85315V16.3333H11.5198V14.3333Z" fill="#008F8F" mask="url(#path-3-inside-1_2656_14331)"/>
</svg>
