<svg width="39" height="28" viewBox="0 0 39 28" fill="none" xmlns="http://www.w3.org/2000/svg">
<path d="M32.654 7.21044C32.2226 7.2064 31.7866 7.20946 31.4343 7.22145C30.0652 7.26805 29.249 7.40511 28.5808 7.8628L28.3177 8.043C28.1479 8.15931 28.0257 8.3329 27.9735 8.53197C27.9212 8.73104 27.9425 8.94227 28.0333 9.12696L28.2697 9.60761C28.2697 9.60766 28.2698 9.6077 28.2698 9.60775C28.4595 9.99312 28.4891 10.0102 28.5334 10.5457C28.5778 11.0812 28.5811 12.0726 28.5755 13.9794C28.566 17.1837 28.5831 17.6502 28.7221 18.5296C28.7759 18.8699 29.0328 20.721 29.2687 22.4553C29.3866 23.3225 29.5007 24.1694 29.5852 24.8062C29.6274 25.1247 29.6622 25.3908 29.6862 25.5793C29.6982 25.6735 29.7076 25.7487 29.7135 25.7988C29.7165 25.8239 29.7187 25.843 29.7196 25.852C29.7205 25.861 29.7175 25.9132 29.7175 25.7933C29.7175 26.1069 29.8923 26.3312 29.9977 26.4272C30.1031 26.5232 30.1713 26.5517 30.2211 26.5744C30.3207 26.6197 30.3597 26.6246 30.3931 26.6322C30.4597 26.6473 30.4862 26.6492 30.5145 26.6523C30.571 26.6587 30.6154 26.6614 30.67 26.6644C30.7793 26.6704 30.9177 26.6749 31.0875 26.6789C31.427 26.6868 31.8858 26.6916 32.3911 26.6916C33.0905 26.6916 33.5502 26.6869 33.869 26.6716C34.0284 26.6639 34.1477 26.6562 34.2842 26.6323C34.3524 26.6204 34.4237 26.609 34.5421 26.5593C34.6604 26.5096 34.9137 26.4142 35.0482 26.0282C35.0482 26.0282 35.0482 26.0281 35.0482 26.0281C35.1224 25.815 35.0843 25.8914 35.0886 25.867C35.0929 25.8425 35.0968 25.8182 35.1013 25.7888C35.1105 25.7299 35.122 25.653 35.136 25.5564C35.1639 25.3634 35.2017 25.0939 35.2469 24.7654C35.3375 24.1083 35.4579 23.2163 35.5865 22.246C35.8339 20.3792 35.9952 19.2002 36.1057 18.4764C36.1544 18.1579 36.1897 17.9594 36.2196 17.8053C36.2551 17.8009 36.2737 17.7925 36.3118 17.7925C36.5884 17.7925 36.8662 17.7591 37.1466 17.6296C37.427 17.5001 37.6938 17.2436 37.827 16.9515C37.9533 16.6743 37.9091 16.6706 37.9186 16.5902C37.928 16.5097 37.9345 16.4268 37.9405 16.3304C37.9525 16.1377 37.9615 15.8955 37.9688 15.6125C37.9835 15.0465 37.9905 14.322 37.9902 13.5894C37.9899 12.8568 37.9823 12.118 37.9672 11.5248C37.9597 11.2282 37.9504 10.9685 37.9386 10.7583C37.9268 10.548 37.9354 10.4503 37.8776 10.2114C37.6006 9.06616 36.8075 8.10625 35.735 7.60438C35.5026 7.49562 35.2483 7.39493 34.9554 7.3429C34.6624 7.29088 34.3562 7.27333 33.8384 7.24412C33.5086 7.22551 33.0855 7.21448 32.654 7.21044ZM36.0925 17.823C36.0549 17.8494 36.0419 17.8343 36.0633 17.827C36.068 17.8254 36.0861 17.8248 36.0925 17.823Z" fill="#6599C8"/>
<path d="M32.1428 1.37563C32.019 1.37569 31.9022 1.38232 31.7758 1.40135C31.523 1.43942 31.3019 1.53509 31.1096 1.62917C30.404 1.9744 29.851 2.52018 29.5305 3.24469C28.956 4.5436 29.3519 6.08356 30.4719 6.96146C30.8437 7.25294 31.214 7.46072 31.6095 7.56455C32.0122 7.67024 32.3324 7.64103 32.697 7.60473C33.0616 7.56843 33.3837 7.5321 33.7554 7.35212C34.153 7.15964 34.4324 6.88844 34.7075 6.58367C34.9827 6.2789 35.2228 5.98355 35.3686 5.55559C35.498 5.17579 35.528 4.82419 35.528 4.44145C35.528 3.96889 35.4276 3.53616 35.2227 3.12614C34.9036 2.48746 34.4018 1.96165 33.7714 1.62797C33.5339 1.50231 33.3804 1.48379 33.1876 1.45201C32.9949 1.42022 32.783 1.40005 32.5519 1.38928C32.3976 1.3821 32.2667 1.37557 32.1428 1.37563Z" fill="#6599C8"/>
<path d="M23.4915 1.60915C23.0829 1.60854 22.6752 1.67382 22.3065 1.84545C20.9976 2.45491 20.3031 3.96728 20.7324 5.33216C21.0113 6.21902 21.6904 6.93244 22.5607 7.24312C23.9191 7.72798 25.4777 7.05462 26.123 5.74456C26.3137 5.35738 26.354 4.93808 26.3593 4.50086C26.3647 4.06364 26.3409 3.65246 26.1473 3.25968C25.8475 2.65128 25.2948 2.13586 24.6772 1.84837C24.3083 1.67659 23.9001 1.60979 23.4915 1.60915Z" fill="white"/>
<path d="M23.808 7.27809C23.196 7.27314 22.5711 7.28712 22.0381 7.31694C21.5052 7.34677 21.1168 7.36944 20.7508 7.47128C20.5846 7.51752 20.4542 7.54771 20.2917 7.60971C20.1293 7.67171 19.8182 7.81024 19.6765 8.1861C19.5348 8.56196 19.6555 8.82117 19.7208 8.97835C19.7861 9.13553 19.8562 9.26317 19.9425 9.43222C20.0855 9.71256 20.2611 10.2131 20.262 10.2174C20.2497 10.1579 20.2705 10.2937 20.2786 10.4653C20.2867 10.6368 20.2935 10.8773 20.2982 11.1785C20.3077 11.7809 20.3094 12.6284 20.3029 13.7024L20.2843 16.7585L20.1626 16.9544L19.9237 17.3384C19.8275 17.493 19.7881 17.6763 19.8121 17.8567L20.3245 21.7022C20.4654 22.7604 20.5978 23.7444 20.6977 24.4782C20.7477 24.8451 20.7896 25.1492 20.8204 25.3697C20.8512 25.5901 20.8537 25.6425 20.8826 25.7908L20.9209 25.9878C20.9559 26.168 21.0531 26.3303 21.1953 26.4463C21.3376 26.5623 21.516 26.6248 21.6996 26.6229L23.5231 26.604L25.3466 26.5849C25.5355 26.5829 25.7173 26.5129 25.8588 26.3877C26.0002 26.2625 26.0917 26.0905 26.1166 25.9032L26.4472 23.4115C26.8309 20.5193 27.0303 19.0253 27.1495 18.256C27.1954 17.9596 27.2201 17.8511 27.2426 17.7485C27.2815 17.7438 27.2616 17.7445 27.3216 17.74C27.7267 17.7102 28.0893 17.6439 28.4231 17.4237L28.6539 17.2715C28.7625 17.1999 28.8516 17.1024 28.9132 16.9879C28.9747 16.8733 29.0069 16.7453 29.0068 16.6153L29.0038 14.0879C29.002 12.5095 28.9914 11.5638 28.9442 10.9032C28.8969 10.2426 28.7915 9.80601 28.6168 9.44893C28.2473 8.69373 27.6485 8.08942 26.8981 7.71857C26.6402 7.59109 26.3994 7.48072 26.1031 7.4213C25.8068 7.36188 25.5105 7.34674 24.9833 7.31509C24.6175 7.29313 24.2159 7.2814 23.808 7.27809Z" fill="white"/>
<path d="M15.3601 7.21289C14.9812 7.21573 14.57 7.2258 14.1284 7.24285C13.384 7.2716 13.0083 7.28153 12.6707 7.3309C12.3331 7.38027 12.0553 7.49941 11.8125 7.61558C11.6542 7.69137 11.5094 7.76925 11.3813 7.84802C11.3173 7.8874 11.2588 7.92523 11.1912 7.97756C11.1236 8.02989 11.0364 7.95378 10.8655 8.39894C10.6981 8.83521 10.8117 8.85486 10.8287 8.94072C10.8456 9.02659 10.8654 9.09324 10.8881 9.16375C10.9334 9.30477 10.9916 9.45255 11.0618 9.60741C11.1356 9.77015 11.2682 10.196 11.2897 10.3144C11.2794 10.2574 11.3168 10.6279 11.3319 11.0475C11.3469 11.4671 11.3591 12.013 11.3669 12.6087C11.3825 13.8 11.381 15.1946 11.3557 16.203C11.3281 17.3061 11.3555 17.6638 11.6298 19.5511C11.8055 20.7597 12.0043 22.1869 12.1589 23.3334C12.2361 23.9067 12.3024 24.4102 12.349 24.7792C12.3723 24.9638 12.3907 25.1151 12.4028 25.2217C12.4149 25.3284 12.4172 25.4766 12.4172 25.3342C12.4172 25.6482 12.4636 25.7494 12.5429 25.9577L12.6127 26.1415C12.6749 26.3049 12.7856 26.4453 12.93 26.5437C13.0744 26.6422 13.2455 26.694 13.4202 26.6922L15.2191 26.6732L17.018 26.6541C17.2234 26.6519 17.4211 26.5759 17.5749 26.4399C17.7287 26.3039 17.8285 26.117 17.8558 25.9135L18.2619 22.8878C18.6309 20.1384 18.8158 18.7625 18.9226 18.086C18.95 17.9126 18.9553 17.9058 18.9726 17.8195C19.0147 17.8148 19.0101 17.8124 19.0669 17.8081C19.438 17.78 19.7918 17.7815 20.186 17.4708C20.5802 17.1601 20.6647 16.7074 20.7038 16.3874C20.7234 16.2265 20.7216 16.1311 20.7262 15.9373C20.7308 15.7435 20.7341 15.4953 20.7363 15.2063C20.7406 14.6283 20.7402 13.8882 20.7339 13.1205L20.7111 10.344C20.71 10.2199 20.682 10.0975 20.6289 9.9853L20.4021 9.50664C19.9084 8.46441 19.0151 7.7062 17.9115 7.40343C17.2936 7.2339 16.4965 7.20438 15.3601 7.21289Z" fill="#D0E1ED"/>
<path d="M15.2313 1.60818C14.1365 1.60463 13.0615 2.22492 12.5676 3.27224C12.3919 3.64474 12.3438 4.0547 12.3362 4.47709C12.3286 4.89948 12.3576 5.30345 12.5292 5.6814C12.8719 6.43582 13.5632 7.00129 14.3965 7.27438C14.7088 7.37676 15.0389 7.39183 15.3981 7.3684C16.9168 7.26932 18.0842 5.96902 18.0757 4.42749C18.0696 3.32399 17.3527 2.31756 16.313 1.84157C15.9664 1.6829 15.5963 1.60937 15.2313 1.60818Z" fill="#D0E1ED"/>
<path d="M5.99641 1.59853C5.64387 1.61276 5.37563 1.67729 5.10093 1.80394C4.45437 2.10201 3.92024 2.63541 3.61735 3.28168C3.26726 4.02865 3.23723 4.92218 3.57969 5.66803C3.95533 6.48617 4.67778 7.15041 5.53799 7.3553C6.3216 7.54194 7.17464 7.41789 7.82834 6.96928C8.75157 6.33572 9.24215 5.35978 9.1707 4.26601C9.12354 3.54416 8.82789 2.92505 8.2902 2.40132C7.75133 1.87644 7.17265 1.63462 6.38043 1.60065C6.2408 1.59466 6.11392 1.59378 5.99641 1.59853Z" fill="white"/>
<path d="M6.18722 7.48377C5.23861 7.48614 4.71105 7.48971 4.33541 7.51268C3.95977 7.53565 3.70704 7.59169 3.46891 7.66742C2.35437 8.02184 1.45439 8.93508 1.107 10.057C0.964332 10.5178 0.955978 10.9827 0.955978 13.6148V16.5933C0.955986 16.6804 0.974803 16.7665 1.01114 16.8457C1.04748 16.9248 1.10049 16.9952 1.16654 17.052L1.36636 17.2239C1.48427 17.3253 1.65383 17.4328 1.83548 17.4847C2.01712 17.5366 2.18094 17.5427 2.36453 17.5432C2.43965 17.5434 2.53719 17.5515 2.61142 17.5631C2.63038 17.566 2.64214 17.5706 2.65862 17.5751C2.6616 17.5901 2.68616 17.6356 2.73221 17.8709C2.84482 18.4466 3.01097 19.6904 3.34811 22.2141C3.46455 23.0857 3.57524 23.9082 3.65984 24.5316C3.74444 25.1549 3.79673 25.5413 3.81683 25.6663L3.85993 25.9344C3.88292 26.0775 3.95649 26.2076 4.06728 26.301C4.17807 26.3945 4.31871 26.445 4.46363 26.4436L6.28905 26.4246C6.2891 26.4246 6.28914 26.4246 6.28919 26.4246L8.11448 26.4055C8.25995 26.4039 8.39999 26.35 8.50895 26.2537C8.61792 26.1573 8.68853 26.0249 8.70784 25.8807L9.2178 22.0719C9.50121 19.9551 9.6575 18.8072 9.75799 18.1791C9.80823 17.8651 9.84559 17.6807 9.8699 17.5893C9.87413 17.5734 9.87145 17.586 9.87401 17.5765C9.93724 17.5611 10.0613 17.5421 10.2611 17.5421C10.5803 17.5421 10.9938 17.3767 11.2139 17.1568L11.214 17.1567L11.4221 16.9487C11.4783 16.8926 11.5229 16.8258 11.5533 16.7524C11.5838 16.679 11.5995 16.6002 11.5995 16.5207V13.6469C11.5995 12.1272 11.5951 11.2951 11.5438 10.7138C11.4924 10.1325 11.3595 9.7573 11.1834 9.41209C10.8747 8.80695 10.3348 8.26685 9.73148 7.95011C9.35831 7.75421 8.98809 7.60874 8.48098 7.54702C7.97387 7.4853 7.32431 7.48094 6.18722 7.48377Z" fill="white"/>
<path d="M3.4879 26.8681C3.39625 26.7764 3.31977 26.6618 3.31795 26.6135C3.31612 26.5651 3.0627 24.6469 2.75478 22.3508L2.19493 18.1761L1.88594 18.1319C1.31599 18.0503 0.799236 17.6829 0.514926 17.157C0.371458 16.8916 0.367683 16.8151 0.348579 13.7875C0.326604 10.3031 0.348579 10.0699 0.782026 9.18934C1.22928 8.28074 2.23868 7.39175 3.14872 7.10498C3.33697 7.04565 3.52968 6.98498 3.57696 6.97015C3.635 6.95194 3.58801 6.83786 3.43233 6.619C2.59367 5.44 2.48602 4.07651 3.13385 2.83884C3.56371 2.01758 4.55397 1.24007 5.4258 1.03928C5.81788 0.948976 6.73004 0.948761 7.12112 1.03887C7.7021 1.17274 8.29108 1.51062 8.75802 1.97789C10.0325 3.25331 10.1814 5.13987 9.12376 6.61204C8.96399 6.83444 8.91411 6.95202 8.97185 6.97014C9.01913 6.98497 9.21428 7.04645 9.4055 7.10676C9.7055 7.20138 10.0504 7.38338 10.6223 7.74886C10.7456 7.82764 10.8045 7.80722 11.1481 7.56654C11.3609 7.41746 11.7637 7.22309 12.0433 7.1346C12.3229 7.04611 12.5522 6.95313 12.5528 6.928C12.5535 6.90286 12.4833 6.79593 12.3969 6.69039C11.4613 5.54802 11.3855 3.81065 12.2163 2.54656C12.8837 1.53101 13.9533 0.965591 15.2069 0.965591C16.2504 0.965591 17.1053 1.34994 17.8306 2.14522C18.9682 3.39259 19.0318 5.36089 17.9771 6.68587C17.8355 6.86386 17.8008 6.94961 17.8626 6.96913C18.4943 7.16862 18.6824 7.24257 18.9907 7.41257L19.3514 7.61141L19.7714 7.38471C20.0025 7.26003 20.3137 7.12186 20.4631 7.07767C20.6124 7.03349 20.7732 6.98518 20.8204 6.97033C20.8776 6.95233 20.8298 6.84336 20.6773 6.64352C19.6496 5.29719 19.7253 3.3841 20.8552 2.14522C21.5799 1.35065 22.4368 0.964973 23.4743 0.966397C24.1527 0.967327 24.5761 1.06582 25.1473 1.35565C27.0987 2.34556 27.6678 5.00688 26.2884 6.69093C26.1027 6.91773 26.1257 6.98064 26.4183 7.0449C26.75 7.11775 27.1899 7.32122 27.5903 7.58701L27.9524 7.82732L28.3605 7.56356C28.6964 7.34647 29.2374 7.10855 29.7139 6.96845C29.7715 6.95152 29.7238 6.83612 29.5693 6.61899C28.7307 5.44 28.623 4.07651 29.2708 2.83884C29.7007 2.01758 30.691 1.24006 31.5628 1.03927C31.9549 0.948968 32.867 0.948754 33.2581 1.03886C33.8391 1.17274 34.4281 1.51061 34.895 1.97789C36.1695 3.2533 36.3184 5.13986 35.2607 6.61204C35.101 6.83443 35.0511 6.95202 35.1088 6.97013C35.1561 6.98497 35.3488 7.04564 35.5371 7.10496C36.4471 7.39174 37.4565 8.28073 37.9038 9.18932C38.3372 10.0699 38.3592 10.3031 38.3372 13.7875C38.3191 16.6565 38.3083 16.9029 38.1913 17.123C37.9008 17.669 37.3757 18.0495 36.7987 18.132L36.4909 18.1761L35.931 22.3508C35.6231 24.6469 35.3697 26.5651 35.3678 26.6135C35.366 26.6618 35.2895 26.7764 35.1979 26.868L35.0313 27.0347H32.4114H29.7915L29.6249 26.868C29.5332 26.7764 29.4568 26.6618 29.4549 26.6135C29.4531 26.5651 29.1998 24.6467 28.892 22.3504L28.3323 18.1753L27.9586 18.1553L27.5849 18.1354L27.0212 22.364C26.7111 24.6898 26.4159 26.6732 26.365 26.7715C26.3141 26.8699 26.2231 26.9693 26.1626 26.9925C26.1022 27.0157 24.8844 27.0347 23.4564 27.0347H20.8601L20.7127 26.8777C20.5797 26.7362 20.5093 26.303 19.9952 22.4609C19.6817 20.1179 19.4066 18.1824 19.384 18.1598C19.3614 18.1372 19.3239 18.1377 19.3007 18.1609C19.2775 18.1841 19.0027 20.1194 18.69 22.4614C18.1764 26.3088 18.1073 26.735 17.9736 26.8772L17.8257 27.0347H15.1974C12.195 27.0347 12.33 27.0609 12.2216 26.4576C12.188 26.2709 11.9222 24.3221 11.6309 22.1268L11.1013 18.1354L10.7274 18.1553L10.3534 18.1753L9.79381 22.3504C9.48601 24.6467 9.23268 26.5651 9.23086 26.6135C9.22902 26.6618 9.15255 26.7764 9.06091 26.868L8.89427 27.0347H6.2744H3.65454L3.4879 26.8681ZM8.14201 25.8297C8.14201 25.8017 8.39829 23.8711 8.71069 21.5394C9.27412 17.3343 9.28016 17.2988 9.46057 17.1437C9.61007 17.0151 9.72091 16.9872 10.0833 16.9872C10.6532 16.9872 10.8959 16.8644 10.9891 16.5289C11.0805 16.1998 11.0817 11.2836 10.9906 10.6397C10.8027 9.31279 9.77821 8.28871 8.44686 8.09707C7.83506 8.00901 4.72181 8.0082 4.10201 8.09595C2.78383 8.28256 1.7449 9.32149 1.55828 10.6397C1.46713 11.2836 1.46834 16.1998 1.55977 16.5289C1.65296 16.8644 1.89566 16.9872 2.46557 16.9872C2.82796 16.9872 2.9388 17.0151 3.0883 17.1437C3.26871 17.2988 3.27476 17.3343 3.83818 21.5394C4.15058 23.8711 4.40649 25.8017 4.40687 25.8297C4.40687 25.8577 5.24766 25.8806 6.27447 25.8806C7.30128 25.8806 8.14164 25.8577 8.14201 25.8297ZM17.0616 25.6939C17.0823 25.5912 17.3288 23.7659 17.6093 21.6376C18.2145 17.046 18.1621 17.3746 18.3201 17.1796C18.4293 17.0447 18.5289 17.0174 19.033 16.9839C19.9914 16.9203 19.916 17.1866 19.9407 13.7777C19.9549 11.8154 19.9369 10.7828 19.8834 10.5039C19.6317 9.19175 18.6271 8.26836 17.2533 8.08652C16.906 8.04055 15.9589 8.02366 14.7753 8.04231C13.0574 8.06939 12.8203 8.08691 12.479 8.21195C12.0545 8.36745 11.5137 8.68666 11.5513 8.75943C12.2067 10.0259 12.2121 10.0652 12.2131 13.5928C12.2137 15.5231 12.1882 16.6385 12.1397 16.8132C12.0854 17.0088 12.0861 17.1453 12.1425 17.3224C12.2066 17.5241 13.3009 25.5262 13.3009 25.7938C13.3009 25.8622 13.6959 25.8806 15.1624 25.8806H17.0239L17.0616 25.6939ZM25.385 25.7857C25.385 25.647 26.4624 17.5916 26.5048 17.4134C26.5794 17.0997 26.7965 16.9872 27.3274 16.9872C27.7567 16.9872 27.8448 16.9651 28.0274 16.8115L28.2363 16.6357V13.5846C28.2363 10.6946 28.229 10.5119 28.098 10.123C27.7264 9.02008 26.8218 8.2609 25.683 8.09628C25.0634 8.00672 21.8707 8.00789 21.3161 8.09788C21.0759 8.13686 20.7326 8.23184 20.5534 8.30895L20.2275 8.44915L20.3536 8.62792C20.6001 8.9772 20.907 9.66002 21.0058 10.0789C21.0866 10.4215 21.1059 11.1094 21.1055 13.6268C21.1048 16.6244 21.0995 16.7619 20.9665 17.0551C20.8903 17.2231 20.7646 17.4282 20.6871 17.5108L20.5461 17.6609L21.0707 21.618C21.3592 23.7944 21.6111 25.6438 21.6305 25.7278L21.6658 25.8806H23.5254C25.0724 25.8806 25.385 25.8646 25.385 25.7857ZM34.279 25.8297C34.279 25.8017 34.5353 23.8711 34.8477 21.5394C35.4111 17.3343 35.4172 17.2988 35.5976 17.1437C35.7471 17.0151 35.8579 16.9872 36.2203 16.9872C36.7902 16.9872 37.0329 16.8644 37.1261 16.5289C37.2175 16.1998 37.2187 11.2836 37.1276 10.6397C36.9397 9.31279 35.9152 8.28871 34.5839 8.09707C33.9682 8.00845 30.8543 8.00843 30.2411 8.09704C29.7528 8.16762 29.2049 8.38255 28.9244 8.61363L28.7639 8.74585L28.9695 9.1532C29.4272 10.06 29.4243 10.0317 29.4243 13.5928C29.4243 16.0165 29.4036 16.8536 29.341 16.9629C29.2743 17.0793 29.2761 17.147 29.3501 17.3024C29.4009 17.4091 29.6621 19.1614 29.9306 21.1963C30.1991 23.2313 30.4508 25.1177 30.4899 25.3884L30.561 25.8806H32.4197C33.4419 25.8806 34.2786 25.8577 34.279 25.8297ZM7.217 6.67867C7.62429 6.49851 8.18291 5.96886 8.38384 5.57233C8.71004 4.92861 8.71004 4.06297 8.38384 3.41924C8.18306 3.02302 7.62791 2.49656 7.20564 2.30193C6.9523 2.18516 6.75776 2.15426 6.2744 2.15399C5.74735 2.15371 5.61205 2.17887 5.28957 2.33725C4.31612 2.81534 3.78002 3.8268 3.94441 4.87513C4.02553 5.39243 4.26166 5.82997 4.66158 6.20405C5.22847 6.7343 5.63815 6.8826 6.42154 6.84109C6.70985 6.82581 7.03398 6.75963 7.217 6.67867ZM16.1692 6.65073C16.8865 6.32236 17.3689 5.67991 17.5239 4.84687C17.7305 3.73585 16.9611 2.54258 15.8252 2.21236C14.7442 1.89813 13.4903 2.48579 13.0063 3.53343C12.7962 3.98814 12.7962 5.00344 13.0063 5.45815C13.5528 6.64097 14.9992 7.18636 16.1692 6.65073ZM24.1611 6.76432C24.8274 6.56645 25.392 6.0799 25.6811 5.45453C25.8902 5.0021 25.8887 3.98635 25.6782 3.53061C25.4707 3.08132 24.9829 2.5856 24.5212 2.35486C24.1779 2.18328 24.0528 2.15851 23.518 2.15624C22.9944 2.15401 22.8517 2.17958 22.5203 2.33492C21.7952 2.6748 21.3167 3.31227 21.1619 4.14471C21.099 4.48331 21.1054 4.63283 21.1993 5.01677C21.5312 6.37383 22.8519 7.1531 24.1611 6.76432ZM33.354 6.67867C33.7613 6.49851 34.3199 5.96886 34.5208 5.57233C34.731 5.15766 34.8163 4.59425 34.7414 4.11644C34.6596 3.59462 34.4235 3.16098 34.0113 2.77546C33.4887 2.28662 33.1483 2.1544 32.4114 2.15399C31.8843 2.15371 31.749 2.17887 31.4266 2.33725C30.4531 2.81534 29.917 3.8268 30.0814 4.87513C30.1625 5.39243 30.3986 5.82997 30.7986 6.20405C31.3655 6.7343 31.7751 6.8826 32.5585 6.84109C32.8468 6.82581 33.171 6.75963 33.354 6.67867Z" fill="#1D274F"/>
</svg>
