<svg width="41" height="36" viewBox="0 0 41 36" fill="none" xmlns="http://www.w3.org/2000/svg">
<path d="M27.9316 23.738V22.952C27.9316 22.3231 27.3041 21.6943 26.6767 21.6943C26.0492 21.6943 25.4218 22.3231 25.4218 22.952V23.738C25.4218 24.0524 25.108 24.2096 24.6375 24.2096H15.8531C15.3826 24.2096 15.0688 23.8952 15.0688 23.738V22.952C15.0688 22.3231 14.4414 21.6943 13.8139 21.6943C13.1865 21.6943 12.559 22.3231 12.559 22.952V23.738C12.559 25.4672 13.9708 26.7249 15.8531 26.7249H24.6375C26.5198 26.7249 27.9316 25.4672 27.9316 23.738Z" fill="#172851"/>
<path d="M40.1669 13.8341H0.16687V35.8428H40.3237L40.1669 13.8341ZM38.4414 34.1135H2.04922V15.7205H38.4414V34.1135Z" fill="#172851"/>
<path d="M34.2061 3.45852H32.9512V0.471619H7.53942V3.45852H5.97079L0.16687 13.8341H40.3237L34.2061 3.45852ZM31.5394 8.01747H9.10805V1.88647H31.5394V8.01747Z" fill="#172851"/>
<path d="M31.3825 1.88646H8.95117V8.01746H31.3825V1.88646Z" fill="white"/>
<path d="M35.3041 10.2183H5.0296V13.8341H35.3041V10.2183Z" fill="#509BCB"/>
<path d="M13.6571 4.40175H12.4022V5.65939H13.6571V4.40175Z" fill="#509BCB"/>
<path d="M27.7747 4.55896H15.0688V5.8166H27.7747V4.55896Z" fill="#509BCB"/>
</svg>
