<svg width="39" height="28" viewBox="0 0 39 28" fill="none" xmlns="http://www.w3.org/2000/svg">
<path d="M38.7129 27.7565H0.953384V7.42609H5.523V20.6957L19.8331 25.2L34.2635 20.6957V7.42609H38.8331L38.7129 27.7565ZM21.7572 26.1739H37.1496V8.88696H35.7065V21.913L21.7572 26.1739ZM2.51668 26.1739H17.9091L3.95971 21.913V8.88696H2.51668V26.1739Z" fill="#172851"/>
<path d="M20.6749 5.96523H19.1116V25.9304H20.6749V5.96523Z" fill="#172851"/>
<path d="M4.80148 1.70435V21.6696L19.7129 26.2957L34.8648 21.4261V1.21739L19.5926 6.45218L4.80148 1.70435Z" fill="white"/>
<path d="M19.8331 26.7826L3.95972 21.913V0.243484L19.8331 5.23479L35.7066 0.243484V21.913L19.8331 26.7826ZM5.52301 20.6957L19.8331 25.2L34.2635 20.6957V2.31305L19.8331 6.8174L5.52301 2.31305V20.6957Z" fill="#172851"/>
<path d="M31.6179 15.7044L22.599 18.8696C22.3585 18.9913 22.1179 18.9913 21.8774 18.6261C21.7572 18.5044 21.7572 18.5044 21.7572 18.2609C21.7572 17.7739 22.1179 17.4087 22.4787 17.287L31.4977 14.1218C31.7382 14 31.9787 14 32.2192 14.3652C32.3395 14.487 32.3395 14.487 32.3395 14.7305C32.2192 15.0957 31.9787 15.5826 31.6179 15.7044Z" fill="#008F8F"/>
<path d="M31.6179 9.98262L27.8901 11.3218C27.6496 11.4435 27.4091 11.4435 27.1686 11.0783C27.0483 10.9565 27.0483 10.9565 27.0483 10.7131C27.0483 10.2261 27.4091 9.86088 27.7698 9.6174L31.4977 8.27827C31.7382 8.15653 32.099 8.27827 32.2192 8.52175C32.3395 8.64349 32.3395 8.64349 32.3395 8.88697C32.2192 9.37393 31.9787 9.73914 31.6179 9.98262Z" fill="#008F8F"/>
<path d="M25.485 12.0522L22.599 13.0261C22.3585 13.1478 22.1179 13.1478 21.8774 12.7826C21.7572 12.6609 21.7572 12.6609 21.7572 12.4174C21.7572 11.9305 22.1179 11.5652 22.4787 11.4435L25.3648 10.4696C25.6053 10.3478 25.8458 10.3478 26.0863 10.7131C26.2066 10.8348 26.2066 10.8348 26.2066 11.0783C26.0863 11.5652 25.8458 11.9305 25.485 12.0522Z" fill="#008F8F"/>
<path d="M29.2129 13.6348L25.004 15.0957C24.7635 15.2174 24.523 15.2174 24.2825 14.8522C24.1622 14.7304 24.1622 14.7304 24.1622 14.487C24.1622 14 24.523 13.6348 24.8838 13.3913L29.0926 11.9304C29.3331 11.8087 29.5736 11.8087 29.8141 12.1739C29.9344 12.2957 29.9344 12.2957 29.9344 12.5391C29.8141 13.1478 29.5736 13.5131 29.2129 13.6348Z" fill="#008F8F"/>
<path d="M7.92807 9.73914L16.9471 12.9044C17.1876 13.0261 17.4281 13.0261 17.6686 12.6609C17.7888 12.5391 17.7888 12.5391 17.7888 12.2957C17.7888 11.8087 17.4281 11.4435 17.0673 11.2L7.92807 8.15653C7.68756 8.0348 7.44706 8.0348 7.20655 8.40001C7.20655 8.52175 7.20655 8.52175 7.20655 8.76523C7.20655 9.25219 7.44706 9.6174 7.92807 9.73914Z" fill="#008F8F"/>
<path d="M7.92807 12.7826L11.6559 14.1218C11.8964 14.2435 12.1369 14.2435 12.3774 13.8783C12.4977 13.7565 12.4977 13.7565 12.4977 13.5131C12.4977 13.0261 12.1369 12.6609 11.7762 12.5391L7.92807 11.2C7.68756 11.0783 7.44706 11.2 7.20655 11.4435C7.20655 11.5652 7.20655 11.5652 7.20655 11.8087C7.20655 12.1739 7.44706 12.6609 7.92807 12.7826Z" fill="#008F8F"/>
<path d="M14.061 14.8522L16.9471 15.8261C17.1876 15.9478 17.4281 15.9478 17.6686 15.5826C17.7888 15.4609 17.7888 15.4609 17.7888 15.2174C17.7888 14.7305 17.4281 14.3652 17.0673 14.2435L14.061 13.3913C13.8205 13.2696 13.58 13.2696 13.3395 13.6348C13.2192 13.7565 13.2192 13.7565 13.2192 14C13.3395 14.3652 13.58 14.7305 14.061 14.8522Z" fill="#008F8F"/>
<path d="M10.3331 16.5565L14.542 18.0174C14.7825 18.1392 15.023 18.1392 15.2635 17.7739C15.3838 17.6522 15.3838 17.6522 15.3838 17.4087C15.3838 16.9218 15.023 16.5565 14.6622 16.4348L10.4534 14.9739C10.2129 14.8522 9.97237 14.8522 9.73186 15.2174C9.61161 15.3391 9.61161 15.3391 9.61161 15.5826C9.61161 15.9478 9.85212 16.4348 10.3331 16.5565Z" fill="#008F8F"/>
</svg>
