<svg width="67" height="67" viewBox="0 0 67 67" fill="none" xmlns="http://www.w3.org/2000/svg">
<g filter="url(#filter0_d_1560_577)">
<circle cx="33.5" cy="29.5" r="29.5" fill="white"/>
<circle cx="33.5" cy="29.5" r="29" stroke="#B3B3B3"/>
</g>
<path d="M15.2067 15.5849C14.5506 15.5849 14.0189 16.1136 14.0189 16.766C14.0189 17.4184 14.5506 17.9471 15.2067 17.9471H18.993L23.0763 37.1032C23.2382 37.8245 23.7133 38.4242 24.3136 38.4199H44.1112C44.7391 38.4284 45.316 37.8631 45.316 37.2388C45.316 36.6146 44.7391 36.0486 44.1112 36.0578H25.2787L24.7711 33.6956H45.695C46.2267 33.6921 46.7295 33.2885 46.8454 32.7732L49.6171 20.9624C49.7712 20.2769 49.173 19.5282 48.4667 19.5226H21.7654L21.122 16.5206C21.0088 15.9955 20.4976 15.5849 19.9581 15.5849H15.2067ZM22.2596 21.884H28.4464L29.0403 25.4273H23.014L22.2596 21.884ZM30.8716 21.884H38.3452L37.7512 25.4273H31.4655L30.8716 21.884ZM40.7704 21.884H46.9699L46.1405 25.4273H40.1764L40.7704 21.884ZM23.5217 27.7895H29.4362L30.0302 31.3327H24.2761L23.5217 27.7895ZM31.8615 27.7895H37.3553L36.7614 31.3327H32.4554L31.8615 27.7895ZM39.7805 27.7895H45.5833L44.7539 31.3327H39.1859L39.7798 27.7895H39.7805ZM28.6691 39.994C26.4963 39.994 24.7096 41.7706 24.7096 43.931C24.7096 46.0914 26.4963 47.8679 28.6691 47.8679C30.8419 47.8679 32.6286 46.0914 32.6286 43.931C32.6286 41.7706 30.8419 39.994 28.6691 39.994ZM39.7557 39.994C37.583 39.994 35.7962 41.7706 35.7962 43.931C35.7962 46.0914 37.583 47.8679 39.7557 47.8679C41.9285 47.8679 43.7153 46.0914 43.7153 43.931C43.7153 41.7706 41.9285 39.994 39.7557 39.994ZM28.6691 42.3562C29.5579 42.3562 30.2529 43.0473 30.2529 43.931C30.2529 44.8147 29.5579 45.5057 28.6691 45.5057C27.7803 45.5057 27.0853 44.8147 27.0853 43.931C27.0853 43.0473 27.7803 42.3562 28.6691 42.3562ZM39.7557 42.3562C40.6445 42.3562 41.3396 43.0473 41.3396 43.931C41.3396 44.8147 40.6445 45.5057 39.7557 45.5057C38.867 45.5057 38.1719 44.8147 38.1719 43.931C38.1719 43.0473 38.867 42.3562 39.7557 42.3562Z" fill="#488400"/>
<defs>
<filter id="filter0_d_1560_577" x="0" y="0" width="67" height="67" filterUnits="userSpaceOnUse" color-interpolation-filters="sRGB">
<feFlood flood-opacity="0" result="BackgroundImageFix"/>
<feColorMatrix in="SourceAlpha" type="matrix" values="0 0 0 0 0 0 0 0 0 0 0 0 0 0 0 0 0 0 127 0" result="hardAlpha"/>
<feOffset dy="4"/>
<feGaussianBlur stdDeviation="2"/>
<feComposite in2="hardAlpha" operator="out"/>
<feColorMatrix type="matrix" values="0 0 0 0 0 0 0 0 0 0 0 0 0 0 0 0 0 0 0.25 0"/>
<feBlend mode="normal" in2="BackgroundImageFix" result="effect1_dropShadow_1560_577"/>
<feBlend mode="normal" in="SourceGraphic" in2="effect1_dropShadow_1560_577" result="shape"/>
</filter>
</defs>
</svg>
