<svg width="9" height="15" viewBox="0 0 9 15" fill="none" xmlns="http://www.w3.org/2000/svg">
<path d="M0.322725 9.835L0.795225 9.37C0.895225 9.27 0.995225 9.23 1.09522 9.25C1.19522 9.275 1.29022 9.3325 1.38022 9.4225L3.52522 11.56C3.76522 11.8 3.95772 12.0175 4.10272 12.2125C4.07272 11.9575 4.04772 11.69 4.02772 11.41C4.00772 11.135 3.99772 10.85 3.99772 10.555L3.99773 0.804999L5.21273 0.804999L5.21272 10.555C5.21272 10.85 5.20272 11.135 5.18272 11.41C5.16272 11.69 5.13522 11.9575 5.10022 12.2125C5.18022 12.1125 5.26772 12.0075 5.36272 11.8975C5.45772 11.7925 5.56272 11.68 5.67772 11.56L7.83773 9.4075C7.92773 9.3175 8.02273 9.26 8.12273 9.235C8.22273 9.215 8.32273 9.255 8.42273 9.355L8.89523 9.82L4.59772 14.11L0.322725 9.835Z" fill="#0F253A"/>
</svg>
