<svg width="89" height="89" viewBox="0 0 89 89" fill="none" xmlns="http://www.w3.org/2000/svg">
<g filter="url(#filter0_d_857_5434)">
<path d="M83.2643 40.5C83.2643 61.9089 65.9089 79.2643 44.5 79.2643C23.0911 79.2643 5.73572 61.9089 5.73572 40.5C5.73572 19.0911 23.0911 1.7357 44.5 1.7357C65.9089 1.7357 83.2643 19.0911 83.2643 40.5Z" fill="white"/>
<path fill-rule="evenodd" clip-rule="evenodd" d="M44.5 3.47143C24.0497 3.47143 7.47143 20.0497 7.47143 40.5C7.47143 60.9503 24.0497 77.5286 44.5 77.5286C64.9503 77.5286 81.5286 60.9503 81.5286 40.5C81.5286 20.0497 64.9503 3.47143 44.5 3.47143ZM4 40.5C4 18.1325 22.1325 0 44.5 0C66.8675 0 85 18.1325 85 40.5C85 62.8675 66.8675 81 44.5 81C22.1325 81 4 62.8675 4 40.5Z" fill="#71C3C9"/>
</g>
<g clip-path="url(#clip0_857_5434)">
<path d="M68.8481 57.6869H21.1519V31.5478H26.924V48.6087L45 54.4L63.2278 48.6087V31.5478H69L68.8481 57.6869ZM47.4304 55.6522H66.8734V33.4261H65.0506V50.1739L47.4304 55.6522ZM23.1266 55.6522H42.5696L24.9494 50.1739V33.4261H23.1266V55.6522Z" fill="#4D8FB2"/>
<path d="M46.0633 29.6696H44.0886V55.3391H46.0633V29.6696Z" fill="#4D8FB2"/>
<path d="M26.0126 24.1913V49.8609L44.8481 55.8087L63.9873 49.5478V23.5652L44.6962 30.2957L26.0126 24.1913Z" fill="white"/>
<path d="M45 56.4348L24.9493 50.1739V22.313L45 28.7304L65.0506 22.313V50.1739L45 56.4348ZM26.924 48.6087L45 54.4L63.2278 48.6087V24.9739L45 30.7652L26.924 24.9739V48.6087Z" fill="#4D8FB2"/>
<path d="M59.8861 42.1913L48.4937 46.2609C48.1899 46.4174 47.8861 46.4174 47.5823 45.9478C47.4304 45.7913 47.4304 45.7913 47.4304 45.4783C47.4304 44.8522 47.8861 44.3826 48.3418 44.2261L59.7342 40.1565C60.038 40 60.3418 40 60.6456 40.4696C60.7974 40.6261 60.7975 40.6261 60.7975 40.9391C60.6456 41.4087 60.3418 42.0348 59.8861 42.1913Z" fill="#4D8FB2"/>
<path d="M59.8861 34.8348L55.1772 36.5565C54.8734 36.713 54.5696 36.713 54.2658 36.2435C54.1139 36.087 54.1139 36.087 54.1139 35.7739C54.1139 35.1478 54.5696 34.6783 55.0253 34.3652L59.7342 32.6435C60.038 32.487 60.4937 32.6435 60.6456 32.9565C60.7975 33.113 60.7975 33.113 60.7975 33.4261C60.6456 34.0522 60.3418 34.5217 59.8861 34.8348Z" fill="#4D8FB2"/>
<path d="M52.1392 37.4956L48.4937 38.7478C48.1899 38.9043 47.8861 38.9043 47.5823 38.4348C47.4304 38.2783 47.4304 38.2783 47.4304 37.9652C47.4304 37.3391 47.8861 36.8696 48.3418 36.713L51.9873 35.4609C52.2911 35.3043 52.5949 35.3043 52.8987 35.7739C53.0506 35.9304 53.0506 35.9304 53.0506 36.2435C52.8987 36.8696 52.5949 37.3391 52.1392 37.4956Z" fill="#4D8FB2"/>
<path d="M56.8481 39.5304L51.5316 41.4087C51.2278 41.5652 50.9241 41.5652 50.6203 41.0956C50.4684 40.9391 50.4684 40.9391 50.4684 40.6261C50.4684 40 50.9241 39.5304 51.3797 39.2174L56.6962 37.3391C57 37.1826 57.3038 37.1826 57.6076 37.6522C57.7595 37.8087 57.7595 37.8087 57.7595 38.1217C57.6076 38.9043 57.3038 39.3739 56.8481 39.5304Z" fill="#4D8FB2"/>
<path d="M29.962 34.5217L41.3544 38.5913C41.6582 38.7478 41.962 38.7478 42.2658 38.2783C42.4177 38.1217 42.4177 38.1217 42.4177 37.8087C42.4177 37.1826 41.962 36.713 41.5063 36.4L29.962 32.487C29.6582 32.3304 29.3544 32.3304 29.0506 32.8C29.0506 32.9565 29.0506 32.9565 29.0506 33.2696C29.0506 33.8956 29.3544 34.3652 29.962 34.5217Z" fill="#4D8FB2"/>
<path d="M29.962 38.4348L34.6709 40.1565C34.9747 40.313 35.2785 40.313 35.5823 39.8435C35.7342 39.687 35.7342 39.687 35.7342 39.3739C35.7342 38.7478 35.2785 38.2783 34.8228 38.1217L29.962 36.4C29.6582 36.2435 29.3544 36.4 29.0506 36.713C29.0506 36.8696 29.0506 36.8696 29.0506 37.1826C29.0506 37.6522 29.3544 38.2783 29.962 38.4348Z" fill="#4D8FB2"/>
<path d="M37.7089 41.0956L41.3544 42.3478C41.6582 42.5043 41.962 42.5043 42.2658 42.0348C42.4177 41.8783 42.4177 41.8783 42.4177 41.5652C42.4177 40.9391 41.962 40.4696 41.5063 40.313L37.7089 39.2174C37.4051 39.0609 37.1013 39.0609 36.7975 39.5304C36.6456 39.6869 36.6456 39.6869 36.6456 40C36.7975 40.4696 37.1013 40.9391 37.7089 41.0956Z" fill="#4D8FB2"/>
<path d="M33 43.2869L38.3164 45.1652C38.6202 45.3217 38.924 45.3217 39.2278 44.8522C39.3797 44.6956 39.3797 44.6956 39.3797 44.3826C39.3797 43.7565 38.924 43.2869 38.4683 43.1304L33.1519 41.2522C32.8481 41.0956 32.5443 41.0956 32.2405 41.5652C32.0886 41.7217 32.0886 41.7217 32.0886 42.0348C32.0886 42.5043 32.3924 43.1304 33 43.2869Z" fill="#4D8FB2"/>
</g>
<defs>
<filter id="filter0_d_857_5434" x="0" y="0" width="89" height="89" filterUnits="userSpaceOnUse" color-interpolation-filters="sRGB">
<feFlood flood-opacity="0" result="BackgroundImageFix"/>
<feColorMatrix in="SourceAlpha" type="matrix" values="0 0 0 0 0 0 0 0 0 0 0 0 0 0 0 0 0 0 127 0" result="hardAlpha"/>
<feOffset dy="4"/>
<feGaussianBlur stdDeviation="2"/>
<feComposite in2="hardAlpha" operator="out"/>
<feColorMatrix type="matrix" values="0 0 0 0 0 0 0 0 0 0 0 0 0 0 0 0 0 0 0.25 0"/>
<feBlend mode="normal" in2="BackgroundImageFix" result="effect1_dropShadow_857_5434"/>
<feBlend mode="normal" in="SourceGraphic" in2="effect1_dropShadow_857_5434" result="shape"/>
</filter>
<clipPath id="clip0_857_5434">
<rect width="48" height="36" fill="white" transform="translate(21 22)"/>
</clipPath>
</defs>
</svg>
