<svg width="9" height="15" viewBox="0 0 9 15" fill="none" xmlns="http://www.w3.org/2000/svg">
<path d="M8.9075 5.165L8.435 5.63C8.335 5.73 8.235 5.77 8.135 5.75C8.035 5.725 7.94 5.6675 7.85 5.5775L5.705 3.44C5.465 3.2 5.2725 2.9825 5.1275 2.7875C5.1575 3.0425 5.1825 3.31 5.2025 3.59C5.2225 3.865 5.2325 4.15 5.2325 4.445L5.2325 14.195H4.0175L4.0175 4.445C4.0175 4.15 4.0275 3.865 4.0475 3.59C4.0675 3.31 4.095 3.0425 4.13 2.7875C4.05 2.8875 3.9625 2.9925 3.8675 3.1025C3.7725 3.2075 3.6675 3.32 3.5525 3.44L1.3925 5.5925C1.3025 5.6825 1.2075 5.74 1.1075 5.765C1.0075 5.785 0.9075 5.745 0.8075 5.645L0.335 5.18L4.6325 0.889999L8.9075 5.165Z" fill="#0F253A"/>
</svg>
